<svg xmlns="http://www.w3.org/2000/svg" width="16" height="16" viewBox="0 0 16 16" fill="none">
    <path d="M7.5 1C11.1 1 14 3.9 14 7.5C14 11.1 11.1 14 7.5 14C3.9 14 1 11.1 1 7.5C1 3.9 3.9 1 7.5 1ZM7.5 0C3.4 0 0 3.4 0 7.5C0 11.6 3.4 15 7.5 15C11.6 15 15 11.6 15 7.5C15 3.4 11.6 0 7.5 0Z" fill="#6FA6D4"/>
    <path d="M14.2 8H0.800049C0.500049 8 0.300049 7.8 0.300049 7.5C0.300049 7.2 0.500049 7 0.800049 7H14.2C14.5 7 14.7 7.2 14.7 7.5C14.7 7.8 14.5 8 14.2 8Z" fill="#6FA6D4"/>
    <path d="M6.30006 14.7C6.20006 14.7 6.00006 14.6 5.90006 14.5C4.90006 13.2 4.10006 10.3 4.00006 7.50003C3.90006 5.50003 4.10006 3.20003 5.90006 0.500033C6.00006 0.300033 6.40006 0.200033 6.60006 0.400033C6.80006 0.600033 6.90006 0.900033 6.70006 1.10003C5.10006 3.50003 4.90006 5.60003 5.00006 7.50003C5.10006 10.4 5.90006 12.9 6.70006 13.9C6.90006 14.1 6.80006 14.4 6.60006 14.6C6.50006 14.7 6.40006 14.7 6.30006 14.7Z" fill="#6FA6D4"/>
    <path d="M8.7 14.7C8.6 14.7 8.5 14.7 8.4 14.6C8.2 14.4 8.1 14.1 8.3 13.9C9.1 12.9 10 10.3 10 7.50003C10.1 5.70003 9.9 3.60003 8.2 1.10003C8.1 0.800033 8.2 0.500033 8.4 0.400033C8.7 0.200033 9 0.300033 9.1 0.500033C10.9 3.30003 11.1 5.60003 11 7.50003C10.9 10.3 10.1 13.1 9 14.5C9 14.6 8.8 14.7 8.7 14.7Z" fill="#6FA6D4"/>
    <path d="M12.5999 12.3C12.4999 12.3 12.3999 12.3 12.3999 12.2L12.2999 12.1C11.0999 11.5 10.0999 10.9 7.49995 10.9C5.19995 10.9 3.29995 11.8 2.59995 12.2C2.39995 12.3 2.09995 12.2 1.89995 12C1.79995 11.8 1.89995 11.5 2.09995 11.3C2.89995 11 4.89995 10 7.39995 10H7.49995C10.2999 10 11.5999 10.7 12.6999 11.3L12.7999 11.4C12.9999 11.5 13.0999 11.8 12.9999 12.1C12.9999 12.2 12.7999 12.3 12.5999 12.3Z" fill="#6FA6D4"/>
    <path d="M7.39995 4.99997C4.69995 4.99997 2.69995 3.99997 2.09995 3.69997C1.89995 3.49997 1.79995 3.19997 1.89995 2.99997C1.99995 2.79997 2.29995 2.69997 2.59995 2.79997C2.99995 2.99997 4.89995 3.99997 7.49995 3.99997C10.1999 3.99997 11.1999 3.39997 12.3999 2.79997C12.5999 2.69997 12.8999 2.79997 13.0999 2.99997C13.1999 3.19997 13.0999 3.49997 12.8999 3.69997C11.5999 4.29997 10.3999 4.99997 7.49995 4.99997H7.39995Z" fill="#6FA6D4"/>
    <deepl-alert xmlns=""/><deepl-alert xmlns=""/><deepl-alert xmlns=""/></svg>
