<svg xmlns="http://www.w3.org/2000/svg" width="130" height="28" fill="none" viewBox="0 0 130 28">
    <path d="M0 5.018A2.997 2.997 0 012.997 2.02h17.985a2.997 2.997 0 012.998 2.998v17.985A2.997 2.997 0 0120.982 26H2.997A2.997 2.997 0 010 23.003V5.018z" fill="#FF8600"/>
    <path fill-rule="evenodd" clip-rule="evenodd" d="M12.632 18.144c.475 1.225.867 2.237 1.001 2.627.37 1.075.233 1.764-.186 2.043-.611.407-1.403.172-2.329-.881-.617-.678-2.249-2.806-3.56-5.064-.926-1.505-1.86-3.344-2.975-5.573-.936-2.555.44-3.362 2.37-4.115 2.082-.828 5.091-1.656 6.789-1.957 1.234-.226 3.141-.422 3.549.301.231.452.055 1.153-1.055 1.87l-1.377.848a484.76 484.76 0 01-3.457 2.124c-1.157.677-1.107 1.663-.798 2.415.5 1.418 1.348 3.608 2.028 5.362zm4.707-1.363c.256.683.468 1.248.54 1.465.102.307.109.692.098.772-.068.482-.582.55-.963.319a2.08 2.08 0 01-.491-.443c-.333-.377-1.214-1.564-1.921-2.824-.5-.84-1.003-1.865-1.605-3.109-.505-1.425.238-1.875 1.278-2.295 1.124-.462 2.747-.924 3.663-1.092l.11-.02c.656-.127 1.514-.291 1.804.188.152.251.03.643-.569 1.043l-.742.473c-.649.415-1.512.966-1.865 1.185-.625.378-.598.927-.431 1.347.27.791.727 2.013 1.094 2.991z" fill="#fff"/>
    <path d="M35.89 20.286c3.841 0 6.06-2.37 6.06-6.302 0-3.879-2.219-6.249-5.952-6.249h-4.31v12.55h4.202zm-2.31-1.67v-9.21h2.31c2.76 0 4.166 1.615 4.166 4.578 0 2.962-1.407 4.632-4.274 4.632H33.58zM43.62 20.285h1.878v-9.654H43.62v9.654zm.994-10.794c.663 0 1.16-.491 1.16-1.092 0-.6-.553-1.092-1.16-1.092-.663 0-1.16.491-1.16 1.092-.056.546.497 1.092 1.16 1.092zM47.102 20.298h1.879v-5.844c0-1.256.994-2.13 2.32-2.13.387 0 .829.055.994.11v-1.748c-.165 0-.552-.055-.773-.055-1.105 0-2.1.655-2.43 1.639h-.111v-1.53h-1.879v9.558zM56.987 20.461c2.099 0 3.59-1.037 4.032-2.566l-1.767-.328c-.332.874-1.16 1.365-2.21 1.365-1.602 0-2.707-1.037-2.762-2.84h6.85v-.655c0-3.44-2.1-4.806-4.254-4.806-2.707 0-4.474 2.02-4.474 4.97 0 2.894 1.767 4.86 4.585 4.86zm-2.707-5.788c.055-1.366 1.05-2.513 2.596-2.513 1.436 0 2.43 1.092 2.43 2.512H54.28zM66.512 20.516c2.265 0 3.756-1.365 3.977-3.222h-1.823c-.22 1.037-1.05 1.638-2.099 1.638-1.602 0-2.596-1.31-2.596-3.386 0-2.02 1.05-3.331 2.596-3.331 1.216 0 1.934.764 2.1 1.638h1.822c-.22-1.911-1.767-3.222-3.977-3.222-2.707 0-4.475 2.02-4.475 4.915-.055 2.895 1.658 4.97 4.475 4.97zM76.268 10.912h-1.99v-2.24h-1.877v2.294h-1.437v1.475h1.437v5.495c0 1.747 1.326 2.566 2.817 2.512.608 0 .994-.11 1.215-.219l-.331-1.529c-.11 0-.332.055-.663.055-.608 0-1.16-.219-1.16-1.256V12.44h1.989v-1.53zM81.736 18.756c-1.16 0-1.988-.819-1.988-2.13v-5.898h-1.879v6.062c0 2.348 1.326 3.605 3.15 3.605 1.436 0 2.43-.765 2.872-1.748H84v1.638h1.823v-9.557h-1.878v5.625c0 .908-.96 2.403-2.21 2.403zM87.427 20.298h1.878v-5.899c0-1.31.884-2.184 1.989-2.184 1.05 0 1.767.655 1.767 1.693v6.39h1.878v-6.062c0-1.147.719-1.966 1.934-1.966.994 0 1.823.546 1.823 1.856v6.172h1.878v-6.39c0-2.185-1.215-3.277-2.983-3.277-1.38 0-2.43.655-2.872 1.693h-.11c-.443-1.037-1.327-1.693-2.597-1.693s-2.21.6-2.652 1.693h-.11V10.74h-1.823v9.558z" fill="#010202"/>
    <path d="M107.052 20.433h1.943V15.56h2.766l2.616 4.873h2.213l-2.855-5.212c1.579-.585 2.365-1.899 2.365-3.628 0-2.37-1.472-4.037-4.458-4.037h-4.59v12.877zm1.943-6.545V9.223h2.439c1.918 0 2.71.911 2.71 2.37 0 1.453-.792 2.295-2.685 2.295h-2.464zM119.461 7.556h-2.251l4.081 6.439-4.106 6.438h2.264l3.093-4.967h.101l3.093 4.967H128l-4.037-6.438 4.012-6.439h-2.251l-3.081 5.037h-.101l-3.081-5.037z" fill="#FF8600"/>
    <deepl-alert xmlns=""/><deepl-alert xmlns=""/><deepl-alert xmlns=""/><deepl-alert xmlns=""/></svg>
