<svg width="96" height="24" viewBox="0 0 96 24" fill="none" xmlns="http://www.w3.org/2000/svg">
<ellipse cx="12.3" cy="12" rx="12.3" ry="12" fill="#5A67BA"/>
<path d="M36.375 7.278C37.189 7.278 37.9003 7.43933 38.509 7.762C39.1177 8.08467 39.587 8.53933 39.917 9.126C40.2543 9.70533 40.423 10.3763 40.423 11.139C40.423 11.8943 40.2543 12.5653 39.917 13.152C39.587 13.7387 39.114 14.1933 38.498 14.516C37.8893 14.8387 37.1817 15 36.375 15H33.482V7.278H36.375ZM36.254 13.372C36.9653 13.372 37.519 13.1777 37.915 12.789C38.311 12.4003 38.509 11.8503 38.509 11.139C38.509 10.4277 38.311 9.874 37.915 9.478C37.519 9.082 36.9653 8.884 36.254 8.884H35.363V13.372H36.254ZM43.8552 7.278V15H41.9742V7.278H43.8552ZM49.6563 15L48.0503 12.085H47.5993V15H45.7183V7.278H48.8753C49.484 7.278 50.001 7.38433 50.4263 7.597C50.859 7.80967 51.1816 8.103 51.3943 8.477C51.607 8.84367 51.7133 9.25433 51.7133 9.709C51.7133 10.2223 51.5666 10.6807 51.2733 11.084C50.9873 11.4873 50.562 11.7733 49.9973 11.942L51.7793 15H49.6563ZM47.5993 10.754H48.7653C49.11 10.754 49.3666 10.6697 49.5353 10.501C49.7113 10.3323 49.7993 10.094 49.7993 9.786C49.7993 9.49267 49.7113 9.26167 49.5353 9.093C49.3666 8.92433 49.11 8.84 48.7653 8.84H47.5993V10.754ZM55.2751 8.785V10.347H57.7941V11.799H55.2751V13.493H58.1241V15H53.3941V7.278H58.1241V8.785H55.2751ZM59.5263 11.128C59.5263 10.3653 59.6913 9.687 60.0213 9.093C60.3513 8.49167 60.8096 8.026 61.3963 7.696C61.9903 7.35867 62.6613 7.19 63.4093 7.19C64.3259 7.19 65.1106 7.432 65.7633 7.916C66.4159 8.4 66.8523 9.06 67.0723 9.896H65.0043C64.8503 9.57333 64.6303 9.32767 64.3443 9.159C64.0656 8.99033 63.7466 8.906 63.3873 8.906C62.8079 8.906 62.3386 9.10767 61.9793 9.511C61.6199 9.91433 61.4403 10.4533 61.4403 11.128C61.4403 11.8027 61.6199 12.3417 61.9793 12.745C62.3386 13.1483 62.8079 13.35 63.3873 13.35C63.7466 13.35 64.0656 13.2657 64.3443 13.097C64.6303 12.9283 64.8503 12.6827 65.0043 12.36H67.0723C66.8523 13.196 66.4159 13.856 65.7633 14.34C65.1106 14.8167 64.3259 15.055 63.4093 15.055C62.6613 15.055 61.9903 14.89 61.3963 14.56C60.8096 14.2227 60.3513 13.757 60.0213 13.163C59.6913 12.569 59.5263 11.8907 59.5263 11.128ZM74.2792 7.278V8.785H72.2332V15H70.3522V8.785H68.3062V7.278H74.2792ZM77.5712 7.278V11.898C77.5712 12.36 77.6849 12.7157 77.9122 12.965C78.1395 13.2143 78.4732 13.339 78.9132 13.339C79.3532 13.339 79.6905 13.2143 79.9252 12.965C80.1599 12.7157 80.2772 12.36 80.2772 11.898V7.278H82.1582V11.887C82.1582 12.5763 82.0115 13.1593 81.7182 13.636C81.4249 14.1127 81.0289 14.472 80.5302 14.714C80.0389 14.956 79.4889 15.077 78.8802 15.077C78.2715 15.077 77.7252 14.9597 77.2412 14.725C76.7645 14.483 76.3869 14.1237 76.1082 13.647C75.8295 13.163 75.6902 12.5763 75.6902 11.887V7.278H77.5712ZM92.7241 7.278V15H90.8431V10.369L89.1161 15H87.5981L85.8601 10.358V15H83.9791V7.278H86.2011L88.3681 12.624L90.5131 7.278H92.7241Z" fill="#5A67BA"/>
</svg>
